<svg id="Camada_1" data-name="Camada 1" xmlns="http://www.w3.org/2000/svg" viewBox="0 0 4153.59 1879.01"><defs><style>.cls-1{fill:#fff;}</style></defs><g id="Camada_2" data-name="Camada 2"><rect class="cls-1" x="3263.53" y="197.79" width="197.79" height="1186.74"/><path class="cls-1" d="M4049.69,791.15a345.13,345.13,0,0,1,103.9,247.24v346.14h-197.8V1038.39a148.35,148.35,0,0,0-148.33-148.34H3573.55V692.26h233.91a148.34,148.34,0,0,0,148.33-148.35V0h197.79V543.91A345.06,345.06,0,0,1,4049.69,791.15Z"/><path class="cls-1" d="M3151.3,692.26V890.05H346.14a148.35,148.35,0,1,0-2.2,296.69h200c191-.12,346,154.64,346.13,345.67v.47c0,174.37-128.94,318.62-296.67,342.62a349.85,349.85,0,0,1-49.46,3.51H0V1681.2H543.92a148.34,148.34,0,1,0,2.2-296.67h-200C154.89,1384.45-.08,1229.34,0,1038.1a346.31,346.31,0,0,1,33.31-148c55.6-116.91,174.75-197.79,312.83-197.79Z"/><path class="cls-1" d="M1879,197.79V395.58H1335.08a148.35,148.35,0,0,0-148.34,148.33V580H989V543.91a344.7,344.7,0,0,1,33.31-148.33c55.55-116.91,174.74-197.79,312.82-197.79Z"/><path class="cls-1" d="M1879,1186.74v197.79H1335.08c-138.08,0-257.27-80.85-312.82-197.79A344.72,344.72,0,0,1,989,1038.39V1002.3h197.79v36.1a148.35,148.35,0,0,0,148.34,148.35Z"/><path class="cls-1" d="M2966.83,1186.74v197.79h-543.9c-138.07,0-257.27-80.85-312.82-197.79a344.73,344.73,0,0,1-33.32-148.35V1002.3h197.79v36.1a148.35,148.35,0,0,0,148.35,148.35Z"/><path class="cls-1" d="M2966.83,197.79V395.58h-543.9a148.35,148.35,0,0,0-148.35,148.33V580H2076.79V543.91a344.71,344.71,0,0,1,33.32-148.33c55.59-116.91,174.75-197.79,312.82-197.79Z"/></g></svg>